{
	"patcher" : 	{
		"fileversion" : 1,
		"rect" : [ 188.0, 108.0, 512.0, 347.0 ],
		"bglocked" : 0,
		"defrect" : [ 188.0, 108.0, 512.0, 347.0 ],
		"openrect" : [ 0.0, 0.0, 0.0, 0.0 ],
		"openinpresentation" : 0,
		"default_fontsize" : 12.0,
		"default_fontface" : 0,
		"default_fontname" : "Arial",
		"gridonopen" : 0,
		"gridsize" : [ 15.0, 15.0 ],
		"gridsnaponopen" : 0,
		"toolbarvisible" : 1,
		"boxanimatetime" : 200,
		"imprint" : 0,
		"boxes" : [ 			{
				"box" : 				{
					"maxclass" : "comment",
					"varname" : "autohelp_dac_text",
					"text" : "start audio",
					"linecount" : 2,
					"patching_rect" : [ 185.0, 256.0, 38.0, 33.0 ],
					"id" : "obj-16",
					"fontname" : "Arial",
					"numinlets" : 1,
					"numoutlets" : 0,
					"fontsize" : 11.595187
				}

			}
, 			{
				"box" : 				{
					"maxclass" : "ezdac~",
					"varname" : "autohelp_dac",
					"patching_rect" : [ 226.0, 250.0, 45.0, 45.0 ],
					"id" : "obj-38",
					"local" : 1,
					"numinlets" : 2,
					"numoutlets" : 0
				}

			}
, 			{
				"box" : 				{
					"maxclass" : "panel",
					"varname" : "startwinwdow_panel",
					"bordercolor" : [ 0.392157, 0.792157, 0.117647, 1.0 ],
					"bgcolor" : [ 1.0, 1.0, 1.0, 1.0 ],
					"patching_rect" : [ 178.0, 245.0, 100.0, 55.0 ],
					"id" : "obj-17",
					"numinlets" : 1,
					"numoutlets" : 0,
					"border" : 2
				}

			}
, 			{
				"box" : 				{
					"maxclass" : "comment",
					"text" : "mxj~ shape1",
					"patching_rect" : [ 13.0, 9.0, 129.0, 27.0 ],
					"id" : "obj-1",
					"fontname" : "Arial",
					"textcolor" : [ 0.101961, 0.031373, 0.223529, 1.0 ],
					"numinlets" : 1,
					"frgb" : [ 0.101961, 0.031373, 0.223529, 1.0 ],
					"numoutlets" : 0,
					"fontsize" : 18.0
				}

			}
, 			{
				"box" : 				{
					"maxclass" : "toggle",
					"outlettype" : [ "int" ],
					"patching_rect" : [ 54.0, 71.448433, 20.0, 20.0 ],
					"id" : "obj-2",
					"numinlets" : 1,
					"numoutlets" : 1
				}

			}
, 			{
				"box" : 				{
					"maxclass" : "message",
					"text" : "benchmark $1",
					"outlettype" : [ "" ],
					"patching_rect" : [ 54.0, 97.708519, 87.0, 18.0 ],
					"id" : "obj-3",
					"fontname" : "Arial",
					"numinlets" : 2,
					"numoutlets" : 1,
					"fontsize" : 12.0
				}

			}
, 			{
				"box" : 				{
					"maxclass" : "message",
					"text" : "viewsource",
					"outlettype" : [ "" ],
					"patching_rect" : [ 54.0, 127.874443, 78.0, 18.0 ],
					"id" : "obj-4",
					"fontname" : "Arial",
					"numinlets" : 2,
					"numoutlets" : 1,
					"fontsize" : 12.0
				}

			}
, 			{
				"box" : 				{
					"maxclass" : "flonum",
					"outlettype" : [ "float", "bang" ],
					"patching_rect" : [ 273.0, 126.156952, 50.0, 20.0 ],
					"id" : "obj-5",
					"fontname" : "Arial",
					"numinlets" : 1,
					"numoutlets" : 2,
					"fontsize" : 12.0
				}

			}
, 			{
				"box" : 				{
					"maxclass" : "newobj",
					"text" : "*~ 0.2",
					"outlettype" : [ "signal" ],
					"patching_rect" : [ 226.0, 199.46637, 50.0, 20.0 ],
					"id" : "obj-9",
					"fontname" : "Arial",
					"numinlets" : 2,
					"numoutlets" : 1,
					"fontsize" : 12.0
				}

			}
, 			{
				"box" : 				{
					"maxclass" : "newobj",
					"text" : "cycle~ 440",
					"outlettype" : [ "signal" ],
					"patching_rect" : [ 226.0, 92.237671, 77.0, 20.0 ],
					"id" : "obj-10",
					"fontname" : "Arial",
					"numinlets" : 2,
					"numoutlets" : 1,
					"fontsize" : 12.0
				}

			}
, 			{
				"box" : 				{
					"maxclass" : "newobj",
					"text" : "mxj~ shape1",
					"outlettype" : [ "signal", "" ],
					"patching_rect" : [ 226.0, 156.793716, 84.0, 20.0 ],
					"id" : "obj-11",
					"fontname" : "Arial",
					"numinlets" : 1,
					"numoutlets" : 2,
					"fontsize" : 12.0
				}

			}
, 			{
				"box" : 				{
					"maxclass" : "comment",
					"text" : "Change value to affect shaping algorithm. Negative values can get really nasty.",
					"linecount" : 4,
					"patching_rect" : [ 327.0, 128.345291, 132.0, 62.0 ],
					"id" : "obj-12",
					"fontname" : "Arial",
					"numinlets" : 1,
					"numoutlets" : 0,
					"fontsize" : 12.0
				}

			}
, 			{
				"box" : 				{
					"maxclass" : "comment",
					"text" : "simple waveshaping algorithm",
					"patching_rect" : [ 13.0, 32.0, 171.0, 20.0 ],
					"id" : "obj-13",
					"fontname" : "Arial",
					"numinlets" : 1,
					"numoutlets" : 0,
					"fontsize" : 12.0
				}

			}
 ],
		"lines" : [ 			{
				"patchline" : 				{
					"source" : [ "obj-2", 0 ],
					"destination" : [ "obj-3", 0 ],
					"hidden" : 0,
					"midpoints" : [  ]
				}

			}
, 			{
				"patchline" : 				{
					"source" : [ "obj-4", 0 ],
					"destination" : [ "obj-11", 0 ],
					"hidden" : 0,
					"midpoints" : [ 63.5, 153.511215, 235.5, 153.511215 ]
				}

			}
, 			{
				"patchline" : 				{
					"source" : [ "obj-3", 0 ],
					"destination" : [ "obj-11", 0 ],
					"hidden" : 0,
					"midpoints" : [ 63.5, 118.497757, 235.5, 118.497757 ]
				}

			}
, 			{
				"patchline" : 				{
					"source" : [ "obj-10", 0 ],
					"destination" : [ "obj-11", 0 ],
					"hidden" : 0,
					"midpoints" : [  ]
				}

			}
, 			{
				"patchline" : 				{
					"source" : [ "obj-11", 0 ],
					"destination" : [ "obj-9", 0 ],
					"hidden" : 0,
					"midpoints" : [  ]
				}

			}
, 			{
				"patchline" : 				{
					"source" : [ "obj-5", 0 ],
					"destination" : [ "obj-11", 0 ],
					"hidden" : 0,
					"midpoints" : [ 282.5, 149.134537, 235.5, 149.134537 ]
				}

			}
, 			{
				"patchline" : 				{
					"source" : [ "obj-9", 0 ],
					"destination" : [ "obj-38", 0 ],
					"hidden" : 0,
					"midpoints" : [  ]
				}

			}
, 			{
				"patchline" : 				{
					"source" : [ "obj-9", 0 ],
					"destination" : [ "obj-38", 1 ],
					"hidden" : 0,
					"midpoints" : [  ]
				}

			}
 ]
	}

}
