{
	"patcher" : 	{
		"fileversion" : 1,
		"rect" : [ 75.0, 159.0, 487.0, 272.0 ],
		"bglocked" : 0,
		"defrect" : [ 75.0, 159.0, 487.0, 272.0 ],
		"openrect" : [ 0.0, 0.0, 0.0, 0.0 ],
		"openinpresentation" : 0,
		"default_fontsize" : 12.0,
		"default_fontface" : 0,
		"default_fontname" : "Arial",
		"gridonopen" : 0,
		"gridsize" : [ 15.0, 15.0 ],
		"gridsnaponopen" : 0,
		"toolbarvisible" : 1,
		"boxanimatetime" : 200,
		"imprint" : 0,
		"boxes" : [ 			{
				"box" : 				{
					"maxclass" : "ezdac~",
					"varname" : "autohelp_dac",
					"patching_rect" : [ 165.0, 198.0, 45.0, 45.0 ],
					"id" : "obj-58",
					"local" : 1,
					"numinlets" : 2,
					"numoutlets" : 0
				}

			}
, 			{
				"box" : 				{
					"maxclass" : "comment",
					"varname" : "autohelp_dac_text",
					"text" : "start audio",
					"linecount" : 2,
					"patching_rect" : [ 124.0, 204.0, 38.0, 33.0 ],
					"id" : "obj-59",
					"fontname" : "Arial",
					"numinlets" : 1,
					"numoutlets" : 0,
					"fontsize" : 11.595187
				}

			}
, 			{
				"box" : 				{
					"maxclass" : "panel",
					"varname" : "startwinwdow_panel",
					"bordercolor" : [ 0.392157, 0.792157, 0.117647, 1.0 ],
					"bgcolor" : [ 1.0, 1.0, 1.0, 1.0 ],
					"patching_rect" : [ 117.0, 193.0, 100.0, 55.0 ],
					"id" : "obj-60",
					"numinlets" : 1,
					"numoutlets" : 0,
					"border" : 2
				}

			}
, 			{
				"box" : 				{
					"maxclass" : "comment",
					"text" : "mxj~ audiofilebuf",
					"patching_rect" : [ 4.0, 4.0, 157.0, 27.0 ],
					"id" : "obj-1",
					"fontname" : "Arial",
					"textcolor" : [ 0.101961, 0.031373, 0.223529, 1.0 ],
					"numinlets" : 1,
					"frgb" : [ 0.101961, 0.031373, 0.223529, 1.0 ],
					"numoutlets" : 0,
					"fontsize" : 18.0
				}

			}
, 			{
				"box" : 				{
					"maxclass" : "message",
					"text" : "viewsource",
					"outlettype" : [ "" ],
					"patching_rect" : [ 84.0, 113.0, 71.0, 18.0 ],
					"id" : "obj-3",
					"fontname" : "Arial",
					"numinlets" : 2,
					"numoutlets" : 1,
					"fontsize" : 12.0
				}

			}
, 			{
				"box" : 				{
					"maxclass" : "message",
					"text" : "open social.aif",
					"outlettype" : [ "" ],
					"patching_rect" : [ 165.0, 111.0, 87.0, 18.0 ],
					"id" : "obj-4",
					"fontname" : "Arial",
					"numinlets" : 2,
					"numoutlets" : 1,
					"fontsize" : 12.0
				}

			}
, 			{
				"box" : 				{
					"maxclass" : "message",
					"text" : "open prim.loop.aif",
					"outlettype" : [ "" ],
					"patching_rect" : [ 266.0, 111.0, 106.0, 18.0 ],
					"id" : "obj-5",
					"fontname" : "Arial",
					"numinlets" : 2,
					"numoutlets" : 1,
					"fontsize" : 12.0
				}

			}
, 			{
				"box" : 				{
					"maxclass" : "newobj",
					"text" : "mxj~ audiofilebuf prim.loop.aif",
					"outlettype" : [ "signal", "signal", "" ],
					"patching_rect" : [ 165.0, 146.0, 170.0, 20.0 ],
					"id" : "obj-7",
					"fontname" : "Arial",
					"numinlets" : 1,
					"numoutlets" : 3,
					"fontsize" : 12.0
				}

			}
, 			{
				"box" : 				{
					"maxclass" : "comment",
					"text" : "This is just a simple example using the com.cycling74.msp.AudioFileBuffer class to show how to load an audio file into memory from disk and access the sample data. The source code will provide more insight than the example itself. See the java doc for com.cycling74.msp.AudioFileBuffer for more detailed information.",
					"linecount" : 4,
					"patching_rect" : [ 3.0, 30.0, 447.0, 62.0 ],
					"id" : "obj-8",
					"fontname" : "Arial",
					"numinlets" : 1,
					"numoutlets" : 0,
					"fontsize" : 12.0
				}

			}
 ],
		"lines" : [ 			{
				"patchline" : 				{
					"source" : [ "obj-7", 1 ],
					"destination" : [ "obj-58", 1 ],
					"hidden" : 0,
					"midpoints" : [ 250.0, 181.5, 200.5, 181.5 ]
				}

			}
, 			{
				"patchline" : 				{
					"source" : [ "obj-7", 0 ],
					"destination" : [ "obj-58", 0 ],
					"hidden" : 0,
					"midpoints" : [  ]
				}

			}
, 			{
				"patchline" : 				{
					"source" : [ "obj-3", 0 ],
					"destination" : [ "obj-7", 0 ],
					"hidden" : 0,
					"midpoints" : [ 93.5, 134.0, 174.5, 134.0 ]
				}

			}
, 			{
				"patchline" : 				{
					"source" : [ "obj-4", 0 ],
					"destination" : [ "obj-7", 0 ],
					"hidden" : 0,
					"midpoints" : [  ]
				}

			}
, 			{
				"patchline" : 				{
					"source" : [ "obj-5", 0 ],
					"destination" : [ "obj-7", 0 ],
					"hidden" : 0,
					"midpoints" : [ 275.5, 134.0, 174.5, 134.0 ]
				}

			}
 ]
	}

}
